<svg width="37" height="13" viewBox="0 0 37 13" fill="none" xmlns="http://www.w3.org/2000/svg">
<path d="M6.55465 9.07031C6.55465 8.83594 6.51819 8.6276 6.44527 8.44531C6.37757 8.26302 6.25517 8.09635 6.07809 7.94531C5.901 7.79427 5.651 7.64844 5.32809 7.50781C5.01038 7.36198 4.60413 7.21354 4.10934 7.0625C3.56767 6.89583 3.06767 6.71094 2.60934 6.50781C2.15621 6.29948 1.76038 6.0599 1.42184 5.78906C1.0833 5.51302 0.820274 5.19792 0.632774 4.84375C0.445274 4.48438 0.351524 4.07031 0.351524 3.60156C0.351524 3.13802 0.447879 2.71615 0.640587 2.33594C0.838504 1.95573 1.11715 1.6276 1.47652 1.35156C1.84111 1.07031 2.2708 0.854167 2.76559 0.703125C3.26038 0.546875 3.80725 0.46875 4.40621 0.46875C5.24996 0.46875 5.97652 0.625 6.5859 0.9375C7.20048 1.25 7.67184 1.66927 7.99996 2.19531C8.3333 2.72135 8.49996 3.30208 8.49996 3.9375H6.55465C6.55465 3.5625 6.47392 3.23177 6.31246 2.94531C6.15621 2.65365 5.91663 2.42448 5.59371 2.25781C5.276 2.09115 4.87236 2.00781 4.38277 2.00781C3.91923 2.00781 3.53382 2.07812 3.22652 2.21875C2.91923 2.35938 2.69007 2.54948 2.53902 2.78906C2.38798 3.02865 2.31246 3.29948 2.31246 3.60156C2.31246 3.8151 2.36194 4.01042 2.4609 4.1875C2.55986 4.35938 2.7109 4.52083 2.91402 4.67188C3.11715 4.81771 3.37236 4.95573 3.67965 5.08594C3.98694 5.21615 4.34892 5.34115 4.76559 5.46094C5.3958 5.64844 5.94527 5.85677 6.41402 6.08594C6.88277 6.3099 7.2734 6.5651 7.5859 6.85156C7.8984 7.13802 8.13277 7.46354 8.28902 7.82812C8.44527 8.1875 8.5234 8.59635 8.5234 9.05469C8.5234 9.53385 8.42705 9.96615 8.23434 10.3516C8.04163 10.7318 7.76559 11.0573 7.40621 11.3281C7.05205 11.5938 6.62496 11.7995 6.12496 11.9453C5.63017 12.0859 5.07809 12.1562 4.46871 12.1562C3.92184 12.1562 3.38277 12.0833 2.85152 11.9375C2.32548 11.7917 1.84632 11.5703 1.41402 11.2734C0.981733 10.9714 0.637983 10.5964 0.382774 10.1484C0.127566 9.69531 -3.8147e-05 9.16667 -3.8147e-05 8.5625H1.9609C1.9609 8.93229 2.0234 9.2474 2.1484 9.50781C2.27861 9.76823 2.4583 9.98177 2.68746 10.1484C2.91663 10.3099 3.18225 10.4297 3.48434 10.5078C3.79163 10.5859 4.11975 10.625 4.46871 10.625C4.92705 10.625 5.30986 10.5599 5.61715 10.4297C5.92965 10.2995 6.16402 10.1172 6.32027 9.88281C6.47652 9.64844 6.55465 9.3776 6.55465 9.07031ZM14.4368 12.1562C13.8118 12.1562 13.2467 12.0547 12.7415 11.8516C12.2415 11.6432 11.8144 11.3542 11.4603 10.9844C11.1113 10.6146 10.8431 10.1797 10.6556 9.67969C10.4681 9.17969 10.3743 8.64062 10.3743 8.0625V7.75C10.3743 7.08854 10.4707 6.48958 10.6634 5.95312C10.8561 5.41667 11.1243 4.95833 11.4681 4.57812C11.8118 4.19271 12.2181 3.89844 12.6868 3.69531C13.1556 3.49219 13.6634 3.39062 14.2103 3.39062C14.8144 3.39062 15.3431 3.49219 15.7962 3.69531C16.2493 3.89844 16.6243 4.1849 16.9212 4.55469C17.2233 4.91927 17.4473 5.35417 17.5931 5.85938C17.7441 6.36458 17.8196 6.92188 17.8196 7.53125V8.33594H11.2884V6.98438H15.9603V6.83594C15.9499 6.4974 15.8821 6.17969 15.7571 5.88281C15.6374 5.58594 15.4525 5.34635 15.2025 5.16406C14.9525 4.98177 14.6191 4.89062 14.2025 4.89062C13.89 4.89062 13.6113 4.95833 13.3665 5.09375C13.1269 5.22396 12.9264 5.41406 12.765 5.66406C12.6035 5.91406 12.4785 6.21615 12.39 6.57031C12.3066 6.91927 12.265 7.3125 12.265 7.75V8.0625C12.265 8.43229 12.3144 8.77604 12.4134 9.09375C12.5176 9.40625 12.6686 9.67969 12.8665 9.91406C13.0644 10.1484 13.304 10.3333 13.5853 10.4688C13.8665 10.599 14.1868 10.6641 14.5462 10.6641C14.9993 10.6641 15.403 10.5729 15.7571 10.3906C16.1113 10.2083 16.4186 9.95052 16.679 9.61719L17.6712 10.5781C17.4889 10.8438 17.2519 11.099 16.9603 11.3438C16.6686 11.5833 16.3118 11.7786 15.89 11.9297C15.4733 12.0807 14.9889 12.1562 14.4368 12.1562ZM21.7956 5.35156V12H19.9128V3.54688H21.6862L21.7956 5.35156ZM21.4596 7.46094L20.8503 7.45312C20.8555 6.85417 20.9388 6.30469 21.1003 5.80469C21.2669 5.30469 21.4961 4.875 21.7878 4.51562C22.0846 4.15625 22.4388 3.88021 22.8503 3.6875C23.2617 3.48958 23.7201 3.39062 24.2253 3.39062C24.6315 3.39062 24.9987 3.44792 25.3268 3.5625C25.6602 3.67188 25.944 3.85156 26.1784 4.10156C26.418 4.35156 26.6003 4.67708 26.7253 5.07812C26.8503 5.47396 26.9128 5.96094 26.9128 6.53906V12H25.0221V6.53125C25.0221 6.125 24.9623 5.80469 24.8425 5.57031C24.7279 5.33073 24.5586 5.16146 24.3346 5.0625C24.1159 4.95833 23.8425 4.90625 23.5143 4.90625C23.1914 4.90625 22.9024 4.97396 22.6471 5.10938C22.3919 5.24479 22.1758 5.42969 21.9987 5.66406C21.8268 5.89844 21.694 6.16927 21.6003 6.47656C21.5065 6.78385 21.4596 7.11198 21.4596 7.46094ZM34.6309 10.25V0H36.5215V12H34.8106L34.6309 10.25ZM29.1309 7.86719V7.70312C29.1309 7.0625 29.2064 6.47917 29.3575 5.95312C29.5085 5.42188 29.7273 4.96615 30.0137 4.58594C30.3002 4.20052 30.6491 3.90625 31.0606 3.70312C31.472 3.49479 31.9356 3.39062 32.4512 3.39062C32.9616 3.39062 33.4095 3.48958 33.795 3.6875C34.1804 3.88542 34.5085 4.16927 34.7793 4.53906C35.0502 4.90365 35.2663 5.34115 35.4278 5.85156C35.5892 6.35677 35.7038 6.91927 35.7715 7.53906V8.0625C35.7038 8.66667 35.5892 9.21875 35.4278 9.71875C35.2663 10.2188 35.0502 10.651 34.7793 11.0156C34.5085 11.3802 34.1778 11.6615 33.7871 11.8594C33.4017 12.0573 32.9512 12.1562 32.4356 12.1562C31.9252 12.1562 31.4642 12.0495 31.0528 11.8359C30.6465 11.6224 30.3002 11.3229 30.0137 10.9375C29.7273 10.5521 29.5085 10.099 29.3575 9.57812C29.2064 9.05208 29.1309 8.48177 29.1309 7.86719ZM31.0137 7.70312V7.86719C31.0137 8.2526 31.0476 8.61198 31.1153 8.94531C31.1882 9.27865 31.3002 9.57292 31.4512 9.82812C31.6023 10.0781 31.7976 10.276 32.0371 10.4219C32.2819 10.5625 32.5736 10.6328 32.9121 10.6328C33.3392 10.6328 33.6908 10.5391 33.9668 10.3516C34.2429 10.1641 34.459 9.91146 34.6153 9.59375C34.7767 9.27083 34.8861 8.91146 34.9434 8.51562V7.10156C34.9121 6.79427 34.847 6.50781 34.7481 6.24219C34.6543 5.97656 34.5267 5.74479 34.3653 5.54688C34.2038 5.34375 34.0033 5.1875 33.7637 5.07812C33.5293 4.96354 33.2507 4.90625 32.9278 4.90625C32.584 4.90625 32.2924 4.97917 32.0528 5.125C31.8132 5.27083 31.6153 5.47135 31.459 5.72656C31.308 5.98177 31.196 6.27865 31.1231 6.61719C31.0502 6.95573 31.0137 7.31771 31.0137 7.70312Z" fill="white"/>
</svg>
